<svg viewBox="0 0 400 150" style="background: inherit; stroke:currentColor; fill:transparent; stroke-width:0.1; font-size:5; text-anchor:middle;" xmlns:xlink="http://www.w3.org/1999/xlink">
  <defs>
    <path id="button" d="M 0 0 h 5 l 5 2.5 l 2.5 5 v 5 l -2.5 5 l -5 2.5 h -5 l -5 -2.5 l -2.5 -5 v -5 l 2.5 -5 l 5 -2.5 z"/>
  </defs>

  <use xlink:href="#button" x="15" y="22.5" />
  <use xlink:href="#button" x="35" y="17.5" />
  <use xlink:href="#button" x="55" y="12.5" />
  <use xlink:href="#button" x="75" y="12.5" />
  <use xlink:href="#button" x="95" y="12.5" />
  <use xlink:href="#button" x="115" y="17.5" />
  <use xlink:href="#button" x="135" y="22.5" />
  <use xlink:href="#button" x="155" y="22.5" />
  <use xlink:href="#button" x="175" y="17.5" />
  <use xlink:href="#button" x="195" y="12.5" />
  <use xlink:href="#button" x="215" y="12.5" />
  <use xlink:href="#button" x="235" y="12.5" />
  <use xlink:href="#button" x="255" y="17.5" />

  <use xlink:href="#button" x="15" y="42.5" />
  <use xlink:href="#button" x="35" y="37.5" />
  <use xlink:href="#button" x="55" y="32.5" />
  <use xlink:href="#button" x="75" y="32.5" />
  <use xlink:href="#button" x="95" y="32.5" />
  <use xlink:href="#button" x="115" y="37.5" />
  <use xlink:href="#button" x="135" y="42.5" />
  <use xlink:href="#button" x="155" y="42.5" />
  <use xlink:href="#button" x="175" y="37.5" />
  <use xlink:href="#button" x="195" y="32.5" />
  <use xlink:href="#button" x="215" y="32.5" />
  <use xlink:href="#button" x="235" y="32.5" />
  <use xlink:href="#button" x="255" y="37.5" />

  <use xlink:href="#button" x="25" y="60" />
  <use xlink:href="#button" x="45" y="55" />
  <use xlink:href="#button" x="65" y="50" />
  <use xlink:href="#button" x="85" y="50" />
  <use xlink:href="#button" x="105" y="55" />
  <use xlink:href="#button" x="125" y="60" />
  <use xlink:href="#button" x="145" y="60" />
  <use xlink:href="#button" x="165" y="60" />
  <use xlink:href="#button" x="185" y="55" />
  <use xlink:href="#button" x="205" y="50" />
  <use xlink:href="#button" x="225" y="50" />
  <use xlink:href="#button" x="245" y="55" />
  <use xlink:href="#button" x="265" y="55" />

  <use xlink:href="#button" x="35" y="77.5" />
  <use xlink:href="#button" x="55" y="72.5" />
  <use xlink:href="#button" x="75" y="67.5" />
  <use xlink:href="#button" x="95" y="72.5" />
  <use xlink:href="#button" x="115" y="77.5" />
  <use xlink:href="#button" x="135" y="77.5" />
  <use xlink:href="#button" x="155" y="77.5" />
  <use xlink:href="#button" x="175" y="77.5" />
  <use xlink:href="#button" x="195" y="72.5" />
  <use xlink:href="#button" x="215" y="67.5" />
  <use xlink:href="#button" x="235" y="72.5" />
  <use xlink:href="#button" x="255" y="72.5" />
  <use xlink:href="#button" x="275" y="72.5" />

  <use xlink:href="#button" x="45" y="95" />
  <use xlink:href="#button" x="65" y="90" />
  <use xlink:href="#button" x="85" y="90" />
  <use xlink:href="#button" x="105" y="95" />
  <use xlink:href="#button" x="125" y="95" />
  <use xlink:href="#button" x="145" y="95" />
  <use xlink:href="#button" x="165" y="95" />
  <use xlink:href="#button" x="185" y="95" />
  <use xlink:href="#button" x="205" y="90" />
  <use xlink:href="#button" x="225" y="90" />
  <use xlink:href="#button" x="245" y="90" />
  <use xlink:href="#button" x="265" y="90" />
  <use xlink:href="#button" x="310" y="95" />

  <use xlink:href="#button" x="60" y="110" />
  <use xlink:href="#button" x="80" y="110" />
  <use  xlink:href="#button" x="100" y="115" />
  <path d="M 120 115 h 55 l 5 2.5 l 2.5 5 v 5 l -2.5 5 l -5 2.5 h -55 l -5 -2.5 l -2.5 -5 v -5 l 2.5 -5 l 5 -2.5 z"/>
  <use xlink:href="#button" x="190" y="115" />
  <use xlink:href="#button" x="210" y="110" />
  <use xlink:href="#button" x="230" y="110" />
  <use xlink:href="#button" x="250" y="110" />
  <use xlink:href="#button" x="270" y="110" />
  <use xlink:href="#button" x="290" y="115" />
  <use xlink:href="#button" x="310" y="115" />
  <use xlink:href="#button" x="330" y="115" />

  <circle cx="16.5" cy="30.5" r=".5" />
  <path d="M 15.5 32.25 v .5 h 1.5 v -.75 l .5 1 l -1 .75 v 1.75 h .5 v -1.5 l 1 -.75 v 1.5 h 1.75 v -.5 h -1.25 v -1.25 l -1 -1.75 h .65 l .6 1 l 0.4 -0.25 l -.75 -1.25 h -1.15 c -0.25 .5 -.5 .5 -.75 .5 v 1 z"/>
  <text x="37.5" y="29.5">F1</text>
  <text x="57.5" y="24.5">F2</text>
  <text x="77.5" y="24.5">F3</text>
  <text x="97.5" y="24.5">F4</text>
  <text x="117.5" y="29.5">F5</text>
  <text x="137.5" y="34.5">F6</text>
  <text x="157.5" y="34.5">F7</text>
  <text x="177.5" y="29.5">F8</text>
  <text x="197.5" y="24.5">F9</text>
  <text x="217.5" y="24.5">F10</text>
  <text x="237.5" y="24.5">F11</text>
  <text x="257.5" y="29.5">F12</text>

  <text x="17.5" y="54.5">
    <tspan style="font-size:3" x="16.5" dy="-4">°</tspan>
    <tspan x="16.5" dy="6">ˆ</tspan>
    <tspan x="16.5" style="stroke: gray">◌</tspan>
    <tspan style="font-size:3" x="20.5" dy="-.5">|</tspan>
  </text>
  <text x="37.5" y="49.5">
    <tspan style="font-size:3" x="36.5" dy="-4">!</tspan>
    <tspan x="36.5" dy="6">1</tspan>
    <tspan style="font-size:3" x="40.5" dy="-.5">’</tspan>
  </text>
  <text x="57.5" y="44.5">
    <tspan style="font-size:3" x="56.5" dy="-4">"</tspan>
    <tspan x="56.5" dy="6">2</tspan>
    <tspan style="font-size:3" x="60.5" dy="-.5"><</tspan>
  </text>
  <text x="77.5" y="44.5">
    <tspan style="font-size:3" x="76.5" dy="-4">§</tspan>
    <tspan x="76.5" dy="6">3</tspan>
    <tspan style="font-size:3" x="80.5" dy="-.5">></tspan>
  </text>
  <text x="97.5" y="44.5">
    <tspan style="font-size:3" x="96.5" dy="-4">$</tspan>
    <tspan x="96.5" dy="6">4</tspan>
    <tspan style="font-size:3" x="100.5" dy="-.5">—</tspan>
  </text>
  <text x="117.5" y="49.5">
    <tspan style="font-size:3" x="116.5" dy="-4">%</tspan>
    <tspan x="116.5" dy="6">5</tspan>
    <tspan style="font-size:3" x="120.5" dy="-.5">¡</tspan>
  </text>
  <text x="137.5" y="54.5">
    <tspan style="font-size:3" x="136.5" dy="-4">&</tspan>
    <tspan x="136.5" dy="6">6</tspan>
    <tspan style="font-size:3" x="140.5" dy="-.5">¿</tspan>
  </text>
  <text x="157.5" y="54.5">
    <tspan style="font-size:3" x="156.5" dy="-4">/</tspan>
    <tspan x="156.5" dy="6">7</tspan>
    <tspan style="font-size:3" x="160.5" dy="-.5">{</tspan>
  </text>
  <text x="177.5" y="49.5">
    <tspan style="font-size:3" x="176.5" dy="-4">(</tspan>
    <tspan x="176.5" dy="6">8</tspan>
    <tspan style="font-size:3" x="180.5" dy="-.5">[</tspan>
  </text>
  <text x="197.5" y="44.5">
    <tspan style="font-size:3" x="196.5" dy="-4">)</tspan>
    <tspan x="196.5" dy="6">9</tspan>
    <tspan style="font-size:3" x="200.5" dy="-.5">]</tspan>
  </text>
  <text x="217.5" y="44.5">
    <tspan style="font-size:3" x="216.5" dy="-4">=</tspan>
    <tspan x="216.5" dy="6">0</tspan>
    <tspan style="font-size:3" x="220.5" dy="-.5">}</tspan>
  </text>
  <text x="237.5" y="44.5">
    <tspan style="font-size:3" x="236.5" dy="-4">?</tspan>
    <tspan x="236.5" dy="6">ß</tspan>
    <tspan style="font-size:3" x="240.5" dy="-.5">\</tspan>
  </text>
  <text x="257.5" y="49.5">
    <tspan style="font-size:3" x="256.5" dy="-4">`</tspan>
    <tspan x="256.5" style="stroke: gray; font-size:3;">◌</tspan>
    <tspan x="257" dy="6">´</tspan>
    <tspan x="256.5" style="stroke: gray">◌</tspan>
    <tspan style="font-size:3" x="261.2" dy="-.5">˙</tspan>
    <tspan x="260.5" style="stroke: gray; font-size:3;">◌</tspan>
  </text>

  <text x="27.5" y="72">
    <tspan x="27.5" dy="-4">⇤</tspan>
    <tspan x="27.5" dy="6">⇥</tspan>
  </text>
  <text x="47.5" y="67">
    <tspan x="46.5" dy="-2">Q</tspan>
    <tspan style="font-size:3" x="50.5" dy="5">@</tspan>
  </text>
  <text x="67.5" y="62">
    <tspan x="66.5" dy="-2">W</tspan>
    <tspan style="font-size:3" x="71.2" dy="5">‾</tspan>
    <tspan x="70.5" style="stroke: gray; font-size:3;">◌</tspan>
  </text>
  <text x="87.5" y="62">
    <tspan x="86.5" dy="-2">E</tspan>
    <tspan style="font-size:3" x="90.5" dy="5">€</tspan>
  </text>
  <text x="107.5" y="67">
    <tspan x="106.5" dy="-2">R</tspan>
    <tspan style="font-size:3" x="111.3" dy="5">˝</tspan>
    <tspan x="110.5" style="stroke: gray; font-size:3;">◌</tspan>
  </text>
  <text x="127.5" y="72">
    <tspan x="126.5" dy="-2">T</tspan>
    <tspan style="font-size:3" x="132" dy="5"> ̌</tspan>
    <tspan x="130.5" style="stroke: gray; font-size:3;">◌</tspan>
  </text>
  <text x="147.5" y="72">Z</text>
  <text x="167.5" y="72">U</text>
  <text x="187.5" y="67">I</text>
  <text x="207.5" y="62">O</text>
  <text x="227.5" y="62">P</text>
  <text x="247.5" y="67">Ü</text>
  <text x="267.5" y="67">
    <tspan x="267.5" dy="-4">*</tspan>
    <tspan x="267.5" dy="6">+</tspan>
  </text>

  <text x="37.5" y="89.5">⇪</text>
  <text x="57.5" y="84.5">A</text>
  <text x="77.5" y="79.5">S</text>
  <text x="97.5" y="84.5">D</text>
  <text x="117.5" y="89.5">F</text>
  <text x="137.5" y="89.5">G</text>
  <text x="157.5" y="89.5">H</text>
  <text x="177.5" y="89.5">J</text>
  <text x="197.5" y="84.5">K</text>
  <text x="217.5" y="79.5">L</text>
  <text x="237.5" y="84.5">Ö</text>
  <text x="257.5" y="84.5">Ä</text>
  <text x="277.5" y="84.5">
    <tspan x="277.5" dy="-4">'</tspan>
    <tspan x="277.5" dy="6">#</tspan>
  </text>

  <text x="47.5" y="107">⇧</text>
  <text x="67.5" y="102">Y</text>
  <text x="87.5" y="102">X</text>
  <text x="107.5" y="107">C</text>
  <text x="127.5" y="107">V</text>
  <text x="147.5" y="107">B</text>
  <text x="167.5" y="107">N</text>
  <text x="187.5" y="107">M</text>
  <text x="207.5" y="102">
    <tspan x="207.5" dy="-4">&lt;</tspan>
    <tspan x="207.5" dy="6">&gt;</tspan>
  </text>
  <text x="227.5" y="102">
    <tspan x="227.5" dy="-4">;</tspan>
    <tspan x="227.5" dy="6">,</tspan>
  </text>
  <text x="247.5" y="102">
    <tspan x="247.5" dy="-4">:</tspan>
    <tspan x="247.5" dy="6">.</tspan>
  </text>
  <text x="267.5" y="102">
    <tspan x="267.5" dy="-4">_</tspan>
    <tspan x="267.5" dy="6">-</tspan>
  </text>

  <text x="62.5" y="122">⎈</text>
  <text x="82.5" y="122">⊞</text>
  <text x="-102.5" y="127" transform="scale(-1, 1)">⌥</text>
  <text x="147.5" y="127">␣</text>
  <text x="192.5" y="127">⌥</text>
  <text x="212.5" y="122">≡</text>
  <text x="232.5" y="122">⎈</text>

  <text x="252.5" y="122">⇱</text>
</svg>
