<svg viewBox="0 0 100 100" style="background: canvas; stroke:canvasText; fill:transparent; stroke-width:1" xmlns:xlink="http://www.w3.org/1999/xlink">
  <defs>
    <path id="cell" d="M 0 0 L 10 0 L 5 10 L 5 0 L 0 10 L 10 5 L 0 5 L 10 0 L 10 10 L 0 10 L 0 0 L 10 5 L 0 5 L 10 10 L 5 0 L 5 10 L 0 0"/>
  </defs>
  <use xlink:href="#cell" x="0" y="0" />
  <use xlink:href="#cell" x="10" y="0" />
  <use xlink:href="#cell" x="20" y="0" />
  <use xlink:href="#cell" x="30" y="0" />
  <use xlink:href="#cell" x="40" y="0" />
  <use xlink:href="#cell" x="50" y="0" />
  <use xlink:href="#cell" x="60" y="0" />
  <use xlink:href="#cell" x="70" y="0" />
  <use xlink:href="#cell" x="80" y="0" />
  <use xlink:href="#cell" x="90" y="0" />
  <use xlink:href="#cell" x="0" y="10" />
  <use xlink:href="#cell" x="10" y="10" />
  <use xlink:href="#cell" x="20" y="10" />
  <use xlink:href="#cell" x="30" y="10" />
  <use xlink:href="#cell" x="40" y="10" />
  <use xlink:href="#cell" x="50" y="10" />
  <use xlink:href="#cell" x="60" y="10" />
  <use xlink:href="#cell" x="70" y="10" />
  <use xlink:href="#cell" x="80" y="10" />
  <use xlink:href="#cell" x="90" y="10" />
  <use xlink:href="#cell" x="0" y="20" />
  <use xlink:href="#cell" x="10" y="20" />
  <use xlink:href="#cell" x="20" y="20" />
  <use xlink:href="#cell" x="30" y="20" />
  <use xlink:href="#cell" x="40" y="20" />
  <use xlink:href="#cell" x="50" y="20" />
  <use xlink:href="#cell" x="60" y="20" />
  <use xlink:href="#cell" x="70" y="20" />
  <use xlink:href="#cell" x="80" y="20" />
  <use xlink:href="#cell" x="90" y="20" />
  <use xlink:href="#cell" x="0" y="30" />
  <use xlink:href="#cell" x="10" y="30" />
  <use xlink:href="#cell" x="20" y="30" />
  <use xlink:href="#cell" x="30" y="30" />
  <use xlink:href="#cell" x="40" y="30" />
  <use xlink:href="#cell" x="50" y="30" />
  <use xlink:href="#cell" x="60" y="30" />
  <use xlink:href="#cell" x="70" y="30" />
  <use xlink:href="#cell" x="80" y="30" />
  <use xlink:href="#cell" x="90" y="30" />
  <use xlink:href="#cell" x="0" y="40" />
  <use xlink:href="#cell" x="10" y="40" />
  <use xlink:href="#cell" x="20" y="40" />
  <use xlink:href="#cell" x="30" y="40" />
  <use xlink:href="#cell" x="40" y="40" />
  <use xlink:href="#cell" x="50" y="40" />
  <use xlink:href="#cell" x="60" y="40" />
  <use xlink:href="#cell" x="70" y="40" />
  <use xlink:href="#cell" x="80" y="40" />
  <use xlink:href="#cell" x="90" y="40" />
  <use xlink:href="#cell" x="0" y="50" />
  <use xlink:href="#cell" x="10" y="50" />
  <use xlink:href="#cell" x="20" y="50" />
  <use xlink:href="#cell" x="30" y="50" />
  <use xlink:href="#cell" x="40" y="50" />
  <use xlink:href="#cell" x="50" y="50" />
  <use xlink:href="#cell" x="60" y="50" />
  <use xlink:href="#cell" x="70" y="50" />
  <use xlink:href="#cell" x="80" y="50" />
  <use xlink:href="#cell" x="90" y="50" />
  <use xlink:href="#cell" x="0" y="60" />
  <use xlink:href="#cell" x="10" y="60" />
  <use xlink:href="#cell" x="20" y="60" />
  <use xlink:href="#cell" x="30" y="60" />
  <use xlink:href="#cell" x="40" y="60" />
  <use xlink:href="#cell" x="50" y="60" />
  <use xlink:href="#cell" x="60" y="60" />
  <use xlink:href="#cell" x="70" y="60" />
  <use xlink:href="#cell" x="80" y="60" />
  <use xlink:href="#cell" x="90" y="60" />
  <use xlink:href="#cell" x="0" y="70" />
  <use xlink:href="#cell" x="10" y="70" />
  <use xlink:href="#cell" x="20" y="70" />
  <use xlink:href="#cell" x="30" y="70" />
  <use xlink:href="#cell" x="40" y="70" />
  <use xlink:href="#cell" x="50" y="70" />
  <use xlink:href="#cell" x="60" y="70" />
  <use xlink:href="#cell" x="70" y="70" />
  <use xlink:href="#cell" x="80" y="70" />
  <use xlink:href="#cell" x="90" y="70" />
  <use xlink:href="#cell" x="0" y="80" />
  <use xlink:href="#cell" x="10" y="80" />
  <use xlink:href="#cell" x="20" y="80" />
  <use xlink:href="#cell" x="30" y="80" />
  <use xlink:href="#cell" x="40" y="80" />
  <use xlink:href="#cell" x="50" y="80" />
  <use xlink:href="#cell" x="60" y="80" />
  <use xlink:href="#cell" x="70" y="80" />
  <use xlink:href="#cell" x="80" y="80" />
  <use xlink:href="#cell" x="90" y="80" />
  <use xlink:href="#cell" x="0" y="90" />
  <use xlink:href="#cell" x="10" y="90" />
  <use xlink:href="#cell" x="20" y="90" />
  <use xlink:href="#cell" x="30" y="90" />
  <use xlink:href="#cell" x="40" y="90" />
  <use xlink:href="#cell" x="50" y="90" />
  <use xlink:href="#cell" x="60" y="90" />
  <use xlink:href="#cell" x="70" y="90" />
  <use xlink:href="#cell" x="80" y="90" />
  <use xlink:href="#cell" x="90" y="90" />
</svg>
