<?xml version="1.0" encoding="UTF-8"?>
<svg xmlns="http://www.w3.org/2000/svg" viewBox="0 0 150 150">
<g stroke="#f00" fill="#f006" stroke-width="0.1">
  <path d="M 24 13 l 3 5 l -3 5 l -3 -5 z"/>
  <path d="M 27 11 l 6 0 l 3 5 l -6 0 z"/>
  <path d="M 30 20 l 6 0 l -3 5 l -6 0 z"/>
  <path d="M 39 22 l 3 5 l -3 5 l -3 -5 z"/>
  <path d="M 27 29 l 6 0 l 3 5 l -6 0 z"/>
  <path d="M 30 38 l 6 0 l -3 5 l -6 0 z"/>
  <path d="M 24 31 l 3 5 l -3 5 l -3 -5 z"/>
  <path d="M 12 38 l 6 0 l 3 5 l -6 0 z"/>
  <path d="M 15 29 l 6 0 l -3 5 l -6 0 z"/>
  <path d="M 9 22 l 3 5 l -3 5 l -3 -5 z"/>
  <path d="M 12 20 l 6 0 l 3 5 l -6 0 z"/>
  <path d="M 15 11 l 6 0 l -3 5 l -6 0 z"/>
</g>
<g stroke="#0f0" fill="#0f06" stroke-width="0.1" transform="rotate(30, 24, 27) translate(0,0)">
  <path d="M 24 13 l 3 5 l -3 5 l -3 -5 z"/>
  <path d="M 27 11 l 6 0 l 3 5 l -6 0 z"/>
  <path d="M 30 20 l 6 0 l -3 5 l -6 0 z"/>
  <path d="M 39 22 l 3 5 l -3 5 l -3 -5 z"/>
  <path d="M 27 29 l 6 0 l 3 5 l -6 0 z"/>
  <path d="M 30 38 l 6 0 l -3 5 l -6 0 z"/>
  <path d="M 24 31 l 3 5 l -3 5 l -3 -5 z"/>
  <path d="M 12 38 l 6 0 l 3 5 l -6 0 z"/>
  <path d="M 15 29 l 6 0 l -3 5 l -6 0 z"/>
  <path d="M 9 22 l 3 5 l -3 5 l -3 -5 z"/>
  <path d="M 12 20 l 6 0 l 3 5 l -6 0 z"/>
  <path d="M 15 11 l 6 0 l -3 5 l -6 0 z"/>
</g>
<g stroke="#f00" fill="#f006" stroke-width="0.1">
  <circle cx="50" cy="50" r="1"/>
  <circle cx="56" cy="50" r="1"/>
  <circle cx="62" cy="50" r="1"/>
  <circle cx="68" cy="50" r="1"/>

  <circle cx="53" cy="55" r="1"/>
  <circle cx="59" cy="55" r="1"/>
  <circle cx="65" cy="55" r="1"/>
  <circle cx="71" cy="55" r="1"/>

  <circle cx="50" cy="60" r="1"/>
  <circle cx="56" cy="60" r="1"/>
  <circle cx="62" cy="60" r="1"/>
  <circle cx="68" cy="60" r="1"/>

  <circle cx="53" cy="65" r="1"/>
  <circle cx="59" cy="65" r="1"/>
  <circle cx="65" cy="65" r="1"/>
  <circle cx="71" cy="65" r="1"/>
</g>
<g stroke="#0f0" fill="#0f06" stroke-width="0.1" transform="rotate(90, 59, 60)">
  <circle cx="50" cy="50" r="1"/>
  <circle cx="56" cy="50" r="1"/>
  <circle cx="62" cy="50" r="1"/>
  <circle cx="68" cy="50" r="1"/>

  <circle cx="53" cy="55" r="1"/>
  <circle cx="59" cy="55" r="1"/>
  <circle cx="65" cy="55" r="1"/>
  <circle cx="71" cy="55" r="1"/>

  <circle cx="50" cy="60" r="1"/>
  <circle cx="56" cy="60" r="1"/>
  <circle cx="62" cy="60" r="1"/>
  <circle cx="68" cy="60" r="1"/>

  <circle cx="53" cy="65" r="1"/>
  <circle cx="59" cy="65" r="1"/>
  <circle cx="65" cy="65" r="1"/>
  <circle cx="71" cy="65" r="1"/>
</g>
</svg>
