<?xml version="1.0" encoding="UTF-8"?>
<svg xmlns="http://www.w3.org/2000/svg" width="150mm" height="150mm" viewBox="0 0 150 150">
<title>Hex Hive</title>
<desc>Hex grid export — oval, pointy-top, hex 20mm, gap 5mm</desc>
<g>
<path d="M 50 41.905989232414974 L 60 36.13248654051871 L 60 24.5854811567262 L 50 18.81197846482994 L 40 24.5854811567262 L 40 36.13248654051871 Z" stroke="#000" stroke-width="0.01" fill="none" vector-effect="non-scaling-stroke"/>
<path d="M 75 41.905989232414974 L 85 36.13248654051871 L 85 24.5854811567262 L 75 18.81197846482994 L 65 24.5854811567262 L 65 36.13248654051871 Z" stroke="#000" stroke-width="0.01" fill="none" vector-effect="non-scaling-stroke"/>
<path d="M 100 41.905989232414974 L 110 36.13248654051871 L 110 24.5854811567262 L 100 18.81197846482994 L 90 24.5854811567262 L 90 36.13248654051871 Z" stroke="#000" stroke-width="0.01" fill="none" vector-effect="non-scaling-stroke"/>
<path d="M 37.5 64.22649730810375 L 47.5 58.45299461620749 L 47.5 46.90598923241497 L 37.5 41.13248654051871 L 27.5 46.90598923241497 L 27.5 58.45299461620749 Z" stroke="#000" stroke-width="0.01" fill="none" vector-effect="non-scaling-stroke"/>
<path d="M 62.5 64.22649730810375 L 72.5 58.45299461620749 L 72.5 46.90598923241497 L 62.5 41.13248654051871 L 52.5 46.90598923241497 L 52.5 58.45299461620749 Z" stroke="#000" stroke-width="0.01" fill="none" vector-effect="non-scaling-stroke"/>
<path d="M 87.5 64.22649730810375 L 97.5 58.45299461620749 L 97.5 46.90598923241497 L 87.5 41.13248654051871 L 77.5 46.90598923241497 L 77.5 58.45299461620749 Z" stroke="#000" stroke-width="0.01" fill="none" vector-effect="non-scaling-stroke"/>
<path d="M 112.5 64.22649730810375 L 122.5 58.45299461620749 L 122.5 46.90598923241497 L 112.5 41.13248654051871 L 102.5 46.90598923241497 L 102.5 58.45299461620749 Z" stroke="#000" stroke-width="0.01" fill="none" vector-effect="non-scaling-stroke"/>
<path d="M 25 86.54700538379251 L 35 80.77350269189625 L 35 69.22649730810375 L 25 63.452994616207484 L 15 69.22649730810375 L 15 80.77350269189625 Z" stroke="#000" stroke-width="0.01" fill="none" vector-effect="non-scaling-stroke"/>
<path d="M 50 86.54700538379251 L 60 80.77350269189625 L 60 69.22649730810375 L 50 63.452994616207484 L 40 69.22649730810375 L 40 80.77350269189625 Z" stroke="#000" stroke-width="0.01" fill="none" vector-effect="non-scaling-stroke"/>
<path d="M 75 86.54700538379251 L 85 80.77350269189625 L 85 69.22649730810375 L 75 63.452994616207484 L 65 69.22649730810375 L 65 80.77350269189625 Z" stroke="#000" stroke-width="0.01" fill="none" vector-effect="non-scaling-stroke"/>
<path d="M 100 86.54700538379251 L 110 80.77350269189625 L 110 69.22649730810375 L 100 63.452994616207484 L 90 69.22649730810375 L 90 80.77350269189625 Z" stroke="#000" stroke-width="0.01" fill="none" vector-effect="non-scaling-stroke"/>
<path d="M 125 86.54700538379251 L 135 80.77350269189625 L 135 69.22649730810375 L 125 63.452994616207484 L 115 69.22649730810375 L 115 80.77350269189625 Z" stroke="#000" stroke-width="0.01" fill="none" vector-effect="non-scaling-stroke"/>
<path d="M 37.5 108.86751345948127 L 47.5 103.09401076758502 L 47.5 91.54700538379251 L 37.5 85.77350269189625 L 27.5 91.54700538379251 L 27.5 103.09401076758502 Z" stroke="#000" stroke-width="0.01" fill="none" vector-effect="non-scaling-stroke"/>
<path d="M 62.5 108.86751345948127 L 72.5 103.09401076758502 L 72.5 91.54700538379251 L 62.5 85.77350269189625 L 52.5 91.54700538379251 L 52.5 103.09401076758502 Z" stroke="#000" stroke-width="0.01" fill="none" vector-effect="non-scaling-stroke"/>
<path d="M 87.5 108.86751345948127 L 97.5 103.09401076758502 L 97.5 91.54700538379251 L 87.5 85.77350269189625 L 77.5 91.54700538379251 L 77.5 103.09401076758502 Z" stroke="#000" stroke-width="0.01" fill="none" vector-effect="non-scaling-stroke"/>
<path d="M 112.5 108.86751345948127 L 122.5 103.09401076758502 L 122.5 91.54700538379251 L 112.5 85.77350269189625 L 102.5 91.54700538379251 L 102.5 103.09401076758502 Z" stroke="#000" stroke-width="0.01" fill="none" vector-effect="non-scaling-stroke"/>
<path d="M 50 131.18802153517007 L 60 125.4145188432738 L 60 113.86751345948129 L 50 108.09401076758502 L 40 113.86751345948129 L 40 125.4145188432738 Z" stroke="#000" stroke-width="0.01" fill="none" vector-effect="non-scaling-stroke"/>
<path d="M 75 131.18802153517007 L 85 125.4145188432738 L 85 113.86751345948129 L 75 108.09401076758502 L 65 113.86751345948129 L 65 125.4145188432738 Z" stroke="#000" stroke-width="0.01" fill="none" vector-effect="non-scaling-stroke"/>
<path d="M 100 131.18802153517007 L 110 125.4145188432738 L 110 113.86751345948129 L 100 108.09401076758502 L 90 113.86751345948129 L 90 125.4145188432738 Z" stroke="#000" stroke-width="0.01" fill="none" vector-effect="non-scaling-stroke"/>
<path d="M 0 75 A 75 75 0 1 0 150 75 A 75 75 0 1 0 0 75 Z" stroke="#000" stroke-width="0.01" fill="none" vector-effect="non-scaling-stroke"/>
</g>
</svg>
