<svg width="400" height="200" style="background:white; stroke:black; fill:transparent; stroke-width:0.1; font-size:3; text-anchor:middle;" xmlns:xlink="http://www.w3.org/1999/xlink">
  <defs>
    <path id="button" d="M 0 0 h 5 l 5 2.5 l 2.5 5 v 5 l -2.5 5 l -5 2.5 h -5 l -5 -2.5 l -2.5 -5 v -5 l 2.5 -5 l 5 -2.5 z"/>
  </defs>

  <use id="esc" xlink:href="#button" x="15" y="72.5" />
  <use id="f1" xlink:href="#button" x="35" y="67.5" />
  <use id="f2" xlink:href="#button" x="55" y="62.5" />
  <use id="f3" xlink:href="#button" x="75" y="62.5" />
  <use id="f4" xlink:href="#button" x="95" y="62.5" />
  <use id="f5" xlink:href="#button" x="115" y="67.5" />
  <use id="f6" xlink:href="#button" x="135" y="72.5" />
  <use id="f7" xlink:href="#button" x="155" y="72.5" />
  <use id="f8" xlink:href="#button" x="175" y="67.5" />
  <use id="f9" xlink:href="#button" x="195" y="62.5" />
  <use id="f10" xlink:href="#button" x="215" y="62.5" />
  <use id="f11" xlink:href="#button" x="235" y="62.5" />
  <use id="f12" xlink:href="#button" x="255" y="67.5" />

  <use id="circumflex" xlink:href="#button" x="15" y="92.5" />
  <use id="one" xlink:href="#button" x="35" y="87.5" />
  <use id="two" xlink:href="#button" x="55" y="82.5" />
  <use id="three" xlink:href="#button" x="75" y="82.5" />
  <use id="four" xlink:href="#button" x="95" y="82.5" />
  <use id="five" xlink:href="#button" x="115" y="87.5" />
  <use id="six" xlink:href="#button" x="135" y="92.5" />
  <use id="seven" xlink:href="#button" x="155" y="92.5" />
  <use id="eight" xlink:href="#button" x="175" y="87.5" />
  <use id="nine" xlink:href="#button" x="195" y="82.5" />
  <use id="zero" xlink:href="#button" x="215" y="82.5" />
  <use id="eszett" xlink:href="#button" x="235" y="82.5" />
  <use id="ticks" xlink:href="#button" x="255" y="87.5" />

  <use id="tab" xlink:href="#button" x="25" y="110" />
  <use id="q" xlink:href="#button" x="45" y="105" />
  <use id="w" xlink:href="#button" x="65" y="100" />
  <use id="e" xlink:href="#button" x="85" y="100" />
  <use id="r" xlink:href="#button" x="105" y="105" />
  <use id="t" xlink:href="#button" x="125" y="110" />
  <use id="z" xlink:href="#button" x="145" y="110" />
  <use id="u" xlink:href="#button" x="165" y="110" />
  <use id="i" xlink:href="#button" x="185" y="105" />
  <use id="o" xlink:href="#button" x="205" y="100" />
  <use id="p" xlink:href="#button" x="225" y="100" />
  <use id="ue" xlink:href="#button" x="245" y="105" />
  <use id="plus" xlink:href="#button" x="265" y="105" />

  <use id="caps" xlink:href="#button" x="35" y="127.5" />
  <use id="a" xlink:href="#button" x="55" y="122.5" />
  <use id="s" xlink:href="#button" x="75" y="117.5" />
  <use id="d" xlink:href="#button" x="95" y="122.5" />
  <use id="f" xlink:href="#button" x="115" y="127.5" />
  <use id="g" xlink:href="#button" x="135" y="127.5" />
  <use id="h" xlink:href="#button" x="155" y="127.5" />
  <use id="j" xlink:href="#button" x="175" y="127.5" />
  <use id="k" xlink:href="#button" x="195" y="122.5" />
  <use id="l" xlink:href="#button" x="215" y="117.5" />
  <use id="oe" xlink:href="#button" x="235" y="122.5" />
  <use id="ae" xlink:href="#button" x="255" y="122.5" />
  <use id="hash" xlink:href="#button" x="275" y="122.5" />

  <use id="shift_l" xlink:href="#button" x="45" y="145" />
  <use id="y" xlink:href="#button" x="65" y="140" />
  <use id="x" xlink:href="#button" x="85" y="140" />
  <use id="c" xlink:href="#button" x="105" y="145" />
  <use id="v" xlink:href="#button" x="125" y="145" />
  <use id="b" xlink:href="#button" x="145" y="145" />
  <use id="n" xlink:href="#button" x="165" y="145" />
  <use id="m" xlink:href="#button" x="185" y="145" />
  <use id="gt_lt" xlink:href="#button" x="205" y="140" />
  <use id="comma" xlink:href="#button" x="225" y="140" />
  <use id="dot" xlink:href="#button" x="245" y="140" />
  <use id="dash" xlink:href="#button" x="265" y="140" />
  <use id="up" xlink:href="#button" x="310" y="145" />

  <use id="ctrl_l" xlink:href="#button" x="60" y="160" />
  <use id="start" xlink:href="#button" x="80" y="160" />
  <use id="alt" xlink:href="#button" x="100" y="165" />
  <path id="space" d="M 120 165 h 55 l 5 2.5 l 2.5 5 v 5 l -2.5 5 l -5 2.5 h -55 l -5 -2.5 l -2.5 -5 v -5 l 2.5 -5 l 5 -2.5 z"/>
  <use id="alt_gr" xlink:href="#button" x="190" y="165" />
  <use id="menu" xlink:href="#button" x="210" y="160" />
  <use id="crtl_r" xlink:href="#button" x="230" y="160" />
  <use id="begin" xlink:href="#button" x="250" y="160" />
  <use id="end" xlink:href="#button" x="270" y="160" />
  <use id="left" xlink:href="#button" x="290" y="165" />
  <use id="down" xlink:href="#button" x="310" y="165" />
  <use id="right" xlink:href="#button" x="330" y="165" />

  <circle cx="16.5" cy="80.5" r=".5" />
  <path d="M 15.5 82.25 v .5 h 1.5 v -.75 l .5 1 l -1 .75 v 1.75 h .5 v -1.5 l 1 -.75 v 1.5 h 1.75 v -.5 h -1.25 v -1.25 l -1 -1.75 h .65 l .6 1 l 0.4 -0.25 l -.75 -1.25 h -1.15 c -0.25 .5 -.5 .5 -.75 .5 v 1 z"/>
  <text x="37.5" y="79.5">F1</text>
  <text x="57.5" y="74.5">F2</text>
  <text x="77.5" y="74.5">F3</text>
  <text x="97.5" y="74.5">F4</text>
  <text x="117.5" y="79.5">F5</text>
  <text x="137.5" y="84.5">F6</text>
  <text x="157.5" y="84.5">F7</text>
  <text x="177.5" y="79.5">F8</text>
  <text x="197.5" y="74.5">F9</text>
  <text x="217.5" y="74.5">F10</text>
  <text x="237.5" y="74.5">F11</text>
  <text x="257.5" y="79.5">F12</text>

  <text x="17.5" y="104.5">
    <tspan x="17.5" dy="-4">°</tspan>
    <tspan x="17.5" dy="6">^</tspan>
  </text>
  <text x="37.5" y="99.5">
    <tspan x="37.5" dy="-4">!</tspan>
    <tspan x="37.5" dy="6">1</tspan>
  </text>
  <text x="57.5" y="94.5">2</text>
  <text x="77.5" y="94.5">3</text>
  <text x="97.5" y="94.5">4</text>
  <text x="117.5" y="99.5">5</text>
  <text x="137.5" y="104.5">6</text>
  <text x="157.5" y="104.5">7</text>
  <text x="177.5" y="99.5">8</text>
  <text x="197.5" y="94.5">9</text>
  <text x="217.5" y="94.5">0</text>
  <text x="237.5" y="94.5">
    <tspan x="237.5" dy="-4">?</tspan>
    <tspan x="237.5" dy="6">ß</tspan>
  </text>
  <text x="257.5" y="99.5">
    <tspan x="257.5" dy="-4">`</tspan>
    <tspan x="257.5" dy="6">´</tspan>
  </text>

  <text x="27.5" y="122">
    <tspan x="27.5" dy="-4">⇤</tspan>
    <tspan x="27.5" dy="6">⇥</tspan>
  </text>
  <text x="47.5" y="117">
    <tspan style="font-size:5" x="46" dy="-3">Q</tspan>
    <tspan x="45.5" dy="5">q</tspan>
    <tspan x="50.5" dy=".5">@</tspan>
    <tspan x="50.5" dy="-6">◌º</tspan>
  </text>
  <text x="67.5" y="112">W</text>
  <text x="87.5" y="112">E</text>
  <text x="107.5" y="117">R</text>
  <text x="127.5" y="122">T</text>
  <text x="147.5" y="122">Z</text>
  <text x="167.5" y="122">U</text>
  <text x="187.5" y="117">I</text>
  <text x="207.5" y="112">O</text>
  <text x="227.5" y="112">P</text>
  <text x="247.5" y="117">Ü</text>
  <text x="267.5" y="117">
    <tspan x="267.5" dy="-4">*</tspan>
    <tspan x="267.5" dy="6">+</tspan>
  </text>

  <text x="37.5" y="139.5">⇪</text>
  <text x="57.5" y="134.5">A</text>
  <text x="77.5" y="129.5">S</text>
  <text x="97.5" y="134.5">D</text>
  <text x="117.5" y="139.5">F</text>
  <text x="137.5" y="139.5">G</text>
  <text x="157.5" y="139.5">H</text>
  <text x="177.5" y="139.5">J</text>
  <text x="197.5" y="134.5">K</text>
  <text x="217.5" y="129.5">L</text>
  <text x="237.5" y="134.5">Ö</text>
  <text x="257.5" y="134.5">Ä</text>
  <text x="277.5" y="134.5">
    <tspan x="277.5" dy="-4">'</tspan>
    <tspan x="277.5" dy="6">#</tspan>
  </text>

  <text x="47.5" y="157">⇧</text>
  <text x="67.5" y="152">Y</text>
  <text x="87.5" y="152">X</text>
  <text x="107.5" y="157">C</text>
  <text x="127.5" y="157">V</text>
  <text x="147.5" y="157">B</text>
  <text x="167.5" y="157">N</text>
  <text x="187.5" y="157">M</text>
  <text x="207.5" y="152">
    <tspan x="207.5" dy="-4">&lt;</tspan>
    <tspan x="207.5" dy="6">&gt;</tspan>
  </text>
  <text x="227.5" y="152">
    <tspan x="227.5" dy="-4">;</tspan>
    <tspan x="227.5" dy="6">,</tspan>
  </text>
  <text x="247.5" y="152">
    <tspan x="247.5" dy="-4">:</tspan>
    <tspan x="247.5" dy="6">.</tspan>
  </text>
  <text x="267.5" y="152">
    <tspan x="267.5" dy="-4">_</tspan>
    <tspan x="267.5" dy="6">-</tspan>
  </text>

  <text x="62.5" y="172">⎈</text>
  <text x="82.5" y="172">⊞</text>
  <text x="-102.5" y="177" transform="scale(-1, 1)">⌥</text>
  <text x="147.5" y="177">␣</text>
  <text x="192.5" y="177">⌥</text>
  <text x="212.5" y="172">≡</text>
  <text x="232.5" y="172">⎈</text>

  <text x="252.5" y="172">⇱</text>
</svg>
